<?xml version="1.0" encoding="utf-8"?>
<svg viewBox="0 0 500 500" xmlns="http://www.w3.org/2000/svg" xmlns:bx="https://boxy-svg.com">
  <path style="stroke: rgba(0, 0, 0, 0); fill: rgb(151, 223, 230);" d="M 447.3863333333333 202.47416666666666 C 438.1566666666667 172.04133333333334 419.69733333333335 111.17566666666669 381.3216666666667 76.35033333333334 C 342.94599999999997 41.525 284.654 32.74 235.95583333333332 43.82566666666667 C 187.25766666666667 54.911333333333324 148.15333333333334 85.86766666666666 130.42283333333333 100.71816666666666 C 112.69233333333334 115.56866666666667 116.33566666666667 114.31333333333333 143.17466666666667 109.29316666666666 C 170.0136666666667 104.27300000000001 220.04833333333337 95.488 255.50933333333333 104.06366666666668 C 290.9703333333334 112.63933333333334 311.8576666666667 138.57566666666665 320.237 159.07383333333334 C 328.61633333333333 179.572 324.48766666666666 194.63199999999998 321.45166666666665 203.10316666666665 C 318.41566666666665 211.57433333333333 316.4723333333333 213.45666666666668 339.1818333333333 217.32583333333332 C 361.8913333333333 221.19500000000002 409.2536666666667 227.05100000000002 432.9348333333333 229.979 C 456.616 232.907 456.616 232.907 456.616 232.907 C 456.616 232.907 456.616 232.907 447.3863333333333 202.47416666666666" bx:d="M 456.616 232.907 U 401.238 50.31 U 226.362 23.955 U 109.049 116.824 U 119.979 113.058 U 270.083 86.703 U 332.745 164.512 U 320.359 209.692 U 314.529 215.339 U 456.616 232.907 U 456.616 232.907 Z 1@c2b64b24"/>
  <path style="stroke-width: 10px; stroke: rgba(255, 255, 255, 0); fill: rgb(233, 240, 246);" d="M 128.99 266.107 C 128.99 266.107 226.02757032401126 190.4689592043216 275.431 188.249 C 323.9009795943042 186.07098567914497 419.76953299073375 224.29811429403455 422.544 250.248 C 425.3916499238112 276.8823733072707 333.22591312543426 343.60557006399415 284.879 346.849 C 235.48248872858292 350.1628439051175 128.99 266.107 128.99 266.107 C 128.98999999999998 266.107 128.99 266.107 128.99 266.107 C 128.99 266.107 128.99 266.107 128.99 266.107" bx:d="M 128.99 266.107 R 275.431 188.249 R 422.544 250.248 R 284.879 346.849 R 128.99 266.107 R 128.99 266.107 Z 1@0f250fb1"/>
  <path style="stroke-width: 10px; fill-rule: evenodd; paint-order: stroke; stroke-dashoffset: -50px; stroke: rgba(165, 48, 48, 0); fill: rgb(122, 179, 184);" d="M 365.98516666666666 329.037 C 372.1223333333333 330.38000000000005 384.3966666666667 333.06600000000003 399.19666666666666 325.79816666666665 C 413.99666666666667 318.5303333333333 431.32233333333335 301.3086666666666 437.44966666666664 291.1235 C 443.577 280.93833333333333 438.50600000000003 277.7896666666667 430.8995 271.4008333333333 C 423.29299999999995 265.012 413.151 255.383 400.18233333333336 246.54099999999997 C 387.2136666666667 237.69899999999998 371.41833333333335 229.644 356.407 235.99883333333332 C 341.3956666666666 242.35366666666664 327.1683333333333 263.11833333333334 327.8725 280.80249999999995 C 328.57666666666665 298.4866666666667 344.21233333333333 313.0903333333333 352.0301666666667 320.3921666666667 C 359.848 327.694 359.848 327.694 365.98516666666666 329.037" bx:d="M 359.848 327.694 U 396.671 335.752 U 448.648 284.087 U 433.435 274.641 U 403.009 245.754 U 355.623 221.589 U 312.941 283.883 U 359.848 327.694 Z 1@fe678048"/>
  <path style="stroke-width: 10px; stroke: rgb(255, 255, 255); fill: rgb(233, 240, 246);" d="M 127.41833333333334 282.68016666666665 C 117.10466666666666 277.5973333333333 96.47733333333333 267.4316666666667 84.87433333333333 251.52700000000002 C 73.27133333333333 235.62233333333336 70.69266666666667 213.97866666666667 69.08083333333333 231.19516666666667 C 67.46900000000001 248.41166666666666 66.824 304.48833333333334 66.82400000000001 335.64183333333335 C 66.824 366.7953333333333 67.46900000000001 373.02566666666667 72.30383333333333 364.49933333333337 C 77.13866666666667 355.97299999999996 86.16333333333334 332.69 97.76633333333332 317.4411666666667 C 109.36933333333333 302.19233333333335 123.55066666666666 294.97766666666666 130.64133333333334 291.3703333333333 C 137.732 287.763 137.732 287.763 137.732 287.763 C 137.732 287.763 137.732 287.763 127.41833333333334 282.68016666666665" bx:d="M 137.732 287.763 U 75.85 257.266 U 68.114 192.335 U 66.179 360.565 U 68.114 379.256 U 95.188 309.407 U 137.732 287.763 U 137.732 287.763 Z 1@9c348fe0"/>
  <path style="stroke-width: 9px; fill: rgba(255, 255, 255, 0); stroke: rgb(37, 97, 102);" d="M 89.731 195.074 C 109.487 91.686 184.053 18.665 269.872 18.665 C 370.231 18.665 445.728 131.889 426.712 253.876"/>
  <path style="stroke-width: 10px; fill: rgba(255, 255, 255, 0); stroke: rgb(37, 97, 102);" d="M 133.51333333333335 279.36600000000004 C 125.85166666666667 275.125 110.52833333333335 266.64300000000003 101.90883333333333 253.37249999999997 C 93.28933333333333 240.102 91.37366666666667 222.043 90.17633333333333 236.408 C 88.979 250.773 88.5 297.562 88.5 323.55583333333334 C 88.5 349.5496666666666 88.979 354.7483333333333 92.57066666666667 347.6341666666667 C 96.16233333333332 340.52 102.86666666666667 321.093 111.48616666666665 308.36966666666666 C 120.10566666666666 295.64633333333336 130.64033333333336 289.6266666666667 135.9076666666667 286.6168333333333 C 141.175 283.607 141.175 283.607 141.17499999999998 283.607 C 141.175 283.607 141.175 283.607 133.51333333333335 279.36600000000004" bx:d="M 141.175 283.607 U 95.205 258.161 U 89.458 203.984 U 88.021 344.351 U 89.458 359.947 U 109.571 301.666 U 141.175 283.607 U 141.175 283.607 Z 1@431d33bc"/>
  <path style="stroke-width: 9px; fill: rgba(255, 255, 255, 0); stroke: rgb(37, 97, 102);" d="M 96.807 185.653 C 113.455 107.911 176.288 53.004 248.604 53.004 C 333.172 53.004 396.79 138.141 380.766 229.868"/>
  <path style="stroke-width: 10px; fill: rgba(255, 255, 255, 0); stroke: rgb(37, 97, 102);" d="M 98.021 181.005 C 111.987 125.397 164.689 86.122 225.347 86.122 C 296.28 86.122 349.641 147.02 336.201 212.632"/>
  <path style="stroke-width: 10px; fill: rgba(255, 255, 255, 0); stroke: rgb(37, 97, 102);" d="M 91.829 186.869 C 103.156 145.892 145.907 116.95 195.11 116.95 C 252.646 116.95 295.931 161.826 285.03 210.174"/>
  <path style="stroke-width: 10px; fill: rgba(255, 255, 255, 0); stroke: rgb(37, 97, 102);" d="M 140.54 280.388 C 140.54 280.388 235.75335352446348 204.73511015579544 284.253 202.53 C 331.80473001497455 200.3679883070992 425.8263507540555 238.60995117661088 428.625 264.529 C 431.5023593921526 291.1770048100744 341.0002851714154 357.9176171318308 293.525 361.13 C 245.07341859982174 364.4084432882007 140.54 280.388 140.54 280.388 C 140.54 280.38800000000003 140.54 280.388 140.54 280.388 C 140.54 280.388 140.54 280.388 140.54 280.388" bx:d="M 140.54 280.388 R 284.253 202.53 R 428.625 264.529 R 293.525 361.13 R 140.54 280.388 R 140.54 280.388 Z 1@4fa20750"/>
  <path style="stroke-width: 10px; fill-rule: evenodd; paint-order: stroke; fill-opacity: 0; fill: rgb(132, 62, 63); stroke-dashoffset: -50px; stroke: rgb(37, 97, 102);" d="M 360.502 219.841 L 350.271 231.19999999999996 C 340.04 242.559 319.578 265.277 320.59099999999995 284.62466666666666 C 321.604 303.9723333333333 344.0919999999999 319.9496666666667 355.336 327.93833333333333 L 366.58 335.927" bx:d="M 360.502 219.841 U 299.116 287.995 U 366.58 335.927 1@ca850af1"/>
  <ellipse style="stroke: rgba(255, 255, 255, 0); stroke-width: 10px; fill: rgb(122, 179, 184);" cx="172.781" cy="189.451" rx="26.135" ry="26.439"/>
  <ellipse style="stroke-width: 10px; stroke: rgb(37, 97, 102); fill: rgba(122, 179, 184, 0);" cx="160.017" cy="198.264" rx="23.704" ry="25.223"/>
  <ellipse style="stroke: rgb(255, 255, 255); fill: rgb(255, 255, 255);" cx="375.173" cy="277.884" rx="14.587" ry="15.195"/>
  <ellipse style="fill: rgba(255, 255, 255, 0); stroke-width: 8px; stroke: rgb(37, 97, 102);" cx="367.272" cy="264.513" rx="14.587" ry="15.195"/>
</svg>